<mxfile host="Electron" modified="2024-05-06T17:30:30.427Z" agent="Mozilla/5.0 (Windows NT 10.0; Win64; x64) AppleWebKit/537.36 (KHTML, like Gecko) draw.io/22.0.2 Chrome/114.0.5735.289 Electron/25.8.4 Safari/537.36" etag="kMH40G9Gfn8hzw03CL5u" version="22.0.2" type="device">
  <diagram name="Pagina-1" id="xPh29YaTTH_FxbT1-V6U">
    <mxGraphModel dx="2062" dy="773" grid="0" gridSize="10" guides="1" tooltips="1" connect="1" arrows="1" fold="1" page="1" pageScale="1" pageWidth="827" pageHeight="1169" math="0" shadow="0">
      <root>
        <mxCell id="0" />
        <mxCell id="1" parent="0" />
        <mxCell id="7-6uoJby9XtTdC6fVnIf-58" style="edgeStyle=orthogonalEdgeStyle;rounded=0;orthogonalLoop=1;jettySize=auto;html=1;entryX=0;entryY=0.75;entryDx=0;entryDy=0;" edge="1" parent="1" source="7-6uoJby9XtTdC6fVnIf-1" target="7-6uoJby9XtTdC6fVnIf-2">
          <mxGeometry relative="1" as="geometry">
            <Array as="points">
              <mxPoint x="290" y="483" />
              <mxPoint x="290" y="493" />
            </Array>
          </mxGeometry>
        </mxCell>
        <mxCell id="7-6uoJby9XtTdC6fVnIf-1" value="&lt;font style=&quot;font-size: 15px;&quot;&gt;OFF&lt;/font&gt;" style="rounded=1;whiteSpace=wrap;html=1;" vertex="1" parent="1">
          <mxGeometry x="80" y="452.5" width="120" height="60" as="geometry" />
        </mxCell>
        <mxCell id="7-6uoJby9XtTdC6fVnIf-2" value="" style="rounded=1;whiteSpace=wrap;html=1;movable=1;resizable=1;rotatable=1;deletable=1;editable=1;locked=0;connectable=1;" vertex="1" parent="1">
          <mxGeometry x="330" y="155" width="710" height="450" as="geometry" />
        </mxCell>
        <mxCell id="7-6uoJby9XtTdC6fVnIf-5" value="ON&lt;br style=&quot;font-size: 15px;&quot;&gt;" style="text;html=1;strokeColor=none;fillColor=none;align=center;verticalAlign=middle;whiteSpace=wrap;rounded=0;fontSize=15;" vertex="1" parent="1">
          <mxGeometry x="655" y="165" width="60" height="30" as="geometry" />
        </mxCell>
        <mxCell id="7-6uoJby9XtTdC6fVnIf-54" style="edgeStyle=orthogonalEdgeStyle;rounded=0;orthogonalLoop=1;jettySize=auto;html=1;entryX=0;entryY=0.5;entryDx=0;entryDy=0;" edge="1" parent="1" source="7-6uoJby9XtTdC6fVnIf-6" target="7-6uoJby9XtTdC6fVnIf-7">
          <mxGeometry relative="1" as="geometry" />
        </mxCell>
        <mxCell id="7-6uoJby9XtTdC6fVnIf-6" value="" style="ellipse;fillColor=strokeColor;html=1;" vertex="1" parent="1">
          <mxGeometry x="360" y="290" width="30" height="30" as="geometry" />
        </mxCell>
        <mxCell id="7-6uoJby9XtTdC6fVnIf-35" style="edgeStyle=orthogonalEdgeStyle;rounded=0;orthogonalLoop=1;jettySize=auto;html=1;entryX=1;entryY=0.5;entryDx=0;entryDy=0;" edge="1" parent="1" source="7-6uoJby9XtTdC6fVnIf-7" target="7-6uoJby9XtTdC6fVnIf-27">
          <mxGeometry relative="1" as="geometry">
            <Array as="points">
              <mxPoint x="490" y="230" />
              <mxPoint x="240" y="230" />
              <mxPoint x="240" y="378" />
            </Array>
          </mxGeometry>
        </mxCell>
        <mxCell id="7-6uoJby9XtTdC6fVnIf-37" value="Fine ciclo" style="edgeLabel;html=1;align=center;verticalAlign=middle;resizable=0;points=[];" vertex="1" connectable="0" parent="7-6uoJby9XtTdC6fVnIf-35">
          <mxGeometry x="-0.8254" y="1" relative="1" as="geometry">
            <mxPoint x="1" y="15" as="offset" />
          </mxGeometry>
        </mxCell>
        <mxCell id="7-6uoJby9XtTdC6fVnIf-36" style="edgeStyle=orthogonalEdgeStyle;rounded=0;orthogonalLoop=1;jettySize=auto;html=1;entryX=0;entryY=0.5;entryDx=0;entryDy=0;" edge="1" parent="1" source="7-6uoJby9XtTdC6fVnIf-7" target="7-6uoJby9XtTdC6fVnIf-9">
          <mxGeometry relative="1" as="geometry">
            <mxPoint x="680" y="305" as="targetPoint" />
          </mxGeometry>
        </mxCell>
        <mxCell id="7-6uoJby9XtTdC6fVnIf-38" value="inizio ciclo" style="edgeLabel;html=1;align=center;verticalAlign=middle;resizable=0;points=[];" vertex="1" connectable="0" parent="7-6uoJby9XtTdC6fVnIf-36">
          <mxGeometry x="-0.0443" y="-1" relative="1" as="geometry">
            <mxPoint as="offset" />
          </mxGeometry>
        </mxCell>
        <mxCell id="7-6uoJby9XtTdC6fVnIf-7" value="&lt;font style=&quot;font-size: 15px;&quot;&gt;MUOVI&lt;/font&gt;" style="rounded=1;whiteSpace=wrap;html=1;" vertex="1" parent="1">
          <mxGeometry x="430" y="275" width="120" height="60" as="geometry" />
        </mxCell>
        <mxCell id="7-6uoJby9XtTdC6fVnIf-39" style="edgeStyle=orthogonalEdgeStyle;rounded=0;orthogonalLoop=1;jettySize=auto;html=1;entryX=0;entryY=0.5;entryDx=0;entryDy=0;" edge="1" parent="1" source="7-6uoJby9XtTdC6fVnIf-9" target="7-6uoJby9XtTdC6fVnIf-20">
          <mxGeometry relative="1" as="geometry" />
        </mxCell>
        <mxCell id="7-6uoJby9XtTdC6fVnIf-40" value="Fine Lettura" style="edgeLabel;html=1;align=center;verticalAlign=middle;resizable=0;points=[];" vertex="1" connectable="0" parent="7-6uoJby9XtTdC6fVnIf-39">
          <mxGeometry x="-0.0774" y="5" relative="1" as="geometry">
            <mxPoint as="offset" />
          </mxGeometry>
        </mxCell>
        <mxCell id="7-6uoJby9XtTdC6fVnIf-9" value="FOTOCAMERA" style="whiteSpace=wrap;html=1;rounded=1;fontSize=15;" vertex="1" parent="1">
          <mxGeometry x="646" y="275" width="120" height="60" as="geometry" />
        </mxCell>
        <mxCell id="7-6uoJby9XtTdC6fVnIf-41" style="edgeStyle=orthogonalEdgeStyle;rounded=0;orthogonalLoop=1;jettySize=auto;html=1;exitX=0.25;exitY=1;exitDx=0;exitDy=0;entryX=1;entryY=0.5;entryDx=0;entryDy=0;" edge="1" parent="1" source="7-6uoJby9XtTdC6fVnIf-20" target="7-6uoJby9XtTdC6fVnIf-21">
          <mxGeometry relative="1" as="geometry" />
        </mxCell>
        <mxCell id="7-6uoJby9XtTdC6fVnIf-43" value="n_items = 10" style="edgeLabel;html=1;align=center;verticalAlign=middle;resizable=0;points=[];" vertex="1" connectable="0" parent="7-6uoJby9XtTdC6fVnIf-41">
          <mxGeometry x="0.2702" y="-2" relative="1" as="geometry">
            <mxPoint as="offset" />
          </mxGeometry>
        </mxCell>
        <mxCell id="7-6uoJby9XtTdC6fVnIf-42" style="edgeStyle=orthogonalEdgeStyle;rounded=0;orthogonalLoop=1;jettySize=auto;html=1;exitX=0.75;exitY=1;exitDx=0;exitDy=0;entryX=1;entryY=0.5;entryDx=0;entryDy=0;" edge="1" parent="1" source="7-6uoJby9XtTdC6fVnIf-20" target="7-6uoJby9XtTdC6fVnIf-22">
          <mxGeometry relative="1" as="geometry" />
        </mxCell>
        <mxCell id="7-6uoJby9XtTdC6fVnIf-44" value="n_items != 10" style="edgeLabel;html=1;align=center;verticalAlign=middle;resizable=0;points=[];" vertex="1" connectable="0" parent="7-6uoJby9XtTdC6fVnIf-42">
          <mxGeometry x="0.5735" y="-4" relative="1" as="geometry">
            <mxPoint x="13" y="-1" as="offset" />
          </mxGeometry>
        </mxCell>
        <mxCell id="7-6uoJby9XtTdC6fVnIf-20" value="RISULTATI&lt;br&gt;" style="whiteSpace=wrap;html=1;rounded=1;fontSize=15;" vertex="1" parent="1">
          <mxGeometry x="880" y="275" width="120" height="60" as="geometry" />
        </mxCell>
        <mxCell id="7-6uoJby9XtTdC6fVnIf-21" value="BUONO" style="whiteSpace=wrap;html=1;rounded=1;fontSize=15;" vertex="1" parent="1">
          <mxGeometry x="646" y="375" width="120" height="60" as="geometry" />
        </mxCell>
        <mxCell id="7-6uoJby9XtTdC6fVnIf-52" value="" style="edgeStyle=orthogonalEdgeStyle;rounded=0;orthogonalLoop=1;jettySize=auto;html=1;" edge="1" parent="1" source="7-6uoJby9XtTdC6fVnIf-22" target="7-6uoJby9XtTdC6fVnIf-51">
          <mxGeometry relative="1" as="geometry" />
        </mxCell>
        <mxCell id="7-6uoJby9XtTdC6fVnIf-22" value="NON_BUONO" style="whiteSpace=wrap;html=1;rounded=1;fontSize=15;" vertex="1" parent="1">
          <mxGeometry x="646" y="480" width="120" height="60" as="geometry" />
        </mxCell>
        <mxCell id="7-6uoJby9XtTdC6fVnIf-33" style="edgeStyle=orthogonalEdgeStyle;rounded=0;orthogonalLoop=1;jettySize=auto;html=1;entryX=0;entryY=0.5;entryDx=0;entryDy=0;" edge="1" parent="1" source="7-6uoJby9XtTdC6fVnIf-25" target="7-6uoJby9XtTdC6fVnIf-1">
          <mxGeometry relative="1" as="geometry">
            <mxPoint x="30" y="532.5" as="targetPoint" />
            <Array as="points">
              <mxPoint x="30" y="277.5" />
              <mxPoint x="30" y="482.5" />
            </Array>
          </mxGeometry>
        </mxCell>
        <mxCell id="7-6uoJby9XtTdC6fVnIf-57" value="reset&lt;br&gt;manutenzione" style="edgeLabel;html=1;align=center;verticalAlign=middle;resizable=0;points=[];" vertex="1" connectable="0" parent="7-6uoJby9XtTdC6fVnIf-33">
          <mxGeometry x="0.0289" y="-6" relative="1" as="geometry">
            <mxPoint as="offset" />
          </mxGeometry>
        </mxCell>
        <mxCell id="7-6uoJby9XtTdC6fVnIf-25" value="MAN" style="whiteSpace=wrap;html=1;rounded=1;fontSize=15;" vertex="1" parent="1">
          <mxGeometry x="80" y="247.5" width="120" height="60" as="geometry" />
        </mxCell>
        <mxCell id="7-6uoJby9XtTdC6fVnIf-29" style="edgeStyle=orthogonalEdgeStyle;rounded=0;orthogonalLoop=1;jettySize=auto;html=1;entryX=0.5;entryY=0;entryDx=0;entryDy=0;" edge="1" parent="1" source="7-6uoJby9XtTdC6fVnIf-27" target="7-6uoJby9XtTdC6fVnIf-1">
          <mxGeometry relative="1" as="geometry" />
        </mxCell>
        <mxCell id="7-6uoJby9XtTdC6fVnIf-56" value="n_cicli &amp;lt; 10" style="edgeLabel;html=1;align=center;verticalAlign=middle;resizable=0;points=[];" vertex="1" connectable="0" parent="7-6uoJby9XtTdC6fVnIf-29">
          <mxGeometry x="-0.249" y="1" relative="1" as="geometry">
            <mxPoint as="offset" />
          </mxGeometry>
        </mxCell>
        <mxCell id="7-6uoJby9XtTdC6fVnIf-32" value="" style="edgeStyle=orthogonalEdgeStyle;rounded=0;orthogonalLoop=1;jettySize=auto;html=1;" edge="1" parent="1" source="7-6uoJby9XtTdC6fVnIf-27" target="7-6uoJby9XtTdC6fVnIf-25">
          <mxGeometry relative="1" as="geometry" />
        </mxCell>
        <mxCell id="7-6uoJby9XtTdC6fVnIf-55" value="n_cicli &amp;gt;= 10" style="edgeLabel;html=1;align=center;verticalAlign=middle;resizable=0;points=[];" vertex="1" connectable="0" parent="7-6uoJby9XtTdC6fVnIf-32">
          <mxGeometry x="-0.0011" relative="1" as="geometry">
            <mxPoint as="offset" />
          </mxGeometry>
        </mxCell>
        <mxCell id="7-6uoJby9XtTdC6fVnIf-27" value="" style="rhombus;whiteSpace=wrap;html=1;" vertex="1" parent="1">
          <mxGeometry x="125" y="362.5" width="30" height="30" as="geometry" />
        </mxCell>
        <mxCell id="7-6uoJby9XtTdC6fVnIf-47" value="" style="edgeStyle=orthogonalEdgeStyle;rounded=0;orthogonalLoop=1;jettySize=auto;html=1;" edge="1" parent="1" source="7-6uoJby9XtTdC6fVnIf-21" target="7-6uoJby9XtTdC6fVnIf-46">
          <mxGeometry relative="1" as="geometry">
            <mxPoint x="500" y="405" as="targetPoint" />
            <mxPoint x="646" y="405" as="sourcePoint" />
          </mxGeometry>
        </mxCell>
        <mxCell id="7-6uoJby9XtTdC6fVnIf-50" style="edgeStyle=orthogonalEdgeStyle;rounded=0;orthogonalLoop=1;jettySize=auto;html=1;exitX=0.5;exitY=0;exitDx=0;exitDy=0;" edge="1" parent="1" source="7-6uoJby9XtTdC6fVnIf-46">
          <mxGeometry relative="1" as="geometry">
            <mxPoint x="495.0588235294117" y="335" as="targetPoint" />
          </mxGeometry>
        </mxCell>
        <mxCell id="7-6uoJby9XtTdC6fVnIf-46" value="" style="rhombus;whiteSpace=wrap;html=1;" vertex="1" parent="1">
          <mxGeometry x="480" y="390" width="30" height="30" as="geometry" />
        </mxCell>
        <mxCell id="7-6uoJby9XtTdC6fVnIf-53" value="" style="edgeStyle=orthogonalEdgeStyle;rounded=0;orthogonalLoop=1;jettySize=auto;html=1;" edge="1" parent="1" source="7-6uoJby9XtTdC6fVnIf-51" target="7-6uoJby9XtTdC6fVnIf-46">
          <mxGeometry relative="1" as="geometry" />
        </mxCell>
        <mxCell id="7-6uoJby9XtTdC6fVnIf-51" value="ATTESA_UTENTE" style="whiteSpace=wrap;html=1;rounded=1;fontSize=13;" vertex="1" parent="1">
          <mxGeometry x="435" y="480" width="120" height="60" as="geometry" />
        </mxCell>
      </root>
    </mxGraphModel>
  </diagram>
</mxfile>
